<svg xmlns="http://www.w3.org/2000/svg" width="360" height="120" aria-label="_ak. logo" role="img" viewBox="0 0 360 120"><title>_ak. logo</title><rect width="360" height="120" fill="transparent"/><defs><pattern id="dotGrid" width="4" height="4" patternUnits="userSpaceOnUse"><circle cx="1.7" cy="1.7" r=".85" fill="#fff"/></pattern><filter id="glitch" width="120%" height="120%" x="-10%" y="-10%"><feOffset dx="1.6" dy="0" in="SourceGraphic" result="off1"/><feOffset dx="-1.2" dy="0" in="SourceGraphic" result="off2"/><feBlend in="off1" in2="off2" mode="screen" result="blend"/><feBlend in="SourceGraphic" in2="blend" mode="screen"/></filter><mask id="dotMask"><rect width="360" height="120" fill="#000"/><rect width="58" height="8" x="28" y="84" fill="#fff"/><path fill="#fff" d="M108 76 C108 58 122 48 144 48 C166 48 179 59 179 77 L179 92 L157 92 L157 83 C151 91 140 96 127 96 C115 96 105 89 105 78 C105 66 116 60 133 60 L157 60 C154 52 148 48 138 48 C128 48 120 52 116 59 L110 59 C104 64 101 69 101 76 Z M132 75 C132 80 136 83 143 83 C151 83 157 79 157 72 L139 72 C134 72 132 73 132 75 Z"/><path fill="#fff" d="M196 24 L222 24 L222 65 L254 48 L284 48 L247 70 L288 94 L256 94 L222 73 L222 94 L196 94 Z"/><rect width="12" height="10" x="306" y="84" fill="#fff"/><rect width="35" height="4" x="92" y="55" fill="#fff"/><rect width="24" height="4" x="177" y="42" fill="#fff"/><rect width="26" height="4" x="250" y="56" fill="#fff"/><rect width="18" height="3" x="292" y="91" fill="#fff"/><rect width="42" height="6" x="100" y="68" fill="#000"/><rect width="22" height="5" x="166" y="80" fill="#000"/><rect width="34" height="6" x="220" y="34" fill="#000"/><rect width="30" height="5" x="252" y="76" fill="#000"/></mask></defs><g opacity=".1"><pattern id="bg" width="8" height="8" patternUnits="userSpaceOnUse"><rect width="4" height="4" x="1" y="1" fill="#fff"/></pattern><rect width="360" height="120" fill="url(#bg)"/></g><g filter="url(#glitch)" mask="url(#dotMask)"><rect width="360" height="120" x="0" y="0" fill="url(#dotGrid)"/></g></svg>