<svg xmlns="http://www.w3.org/2000/svg" width="1827" height="30" fill="none" viewBox="0 0 1827 30"><path stroke="#724314" stroke-linejoin="round" stroke-width="2" d="M1 0V30"/><path stroke="#724314" stroke-linejoin="round" stroke-width="2" d="M63.5 0V30"/><path stroke="#724314" stroke-linejoin="round" stroke-width="2" d="M126 0V30"/><path stroke="#724314" stroke-linejoin="round" stroke-width="2" d="M188.5 0V30"/><path stroke="#724314" stroke-linejoin="round" stroke-width="2" d="M251 0V30"/><path stroke="#724314" stroke-linejoin="round" stroke-width="2" d="M13.5 15V30"/><path stroke="#724314" stroke-linejoin="round" stroke-width="2" d="M76 15V30"/><path stroke="#724314" stroke-linejoin="round" stroke-width="2" d="M138.5 15V30"/><path stroke="#724314" stroke-linejoin="round" stroke-width="2" d="M201 15V30"/><path stroke="#724314" stroke-linejoin="round" stroke-width="2" d="M26 15V30"/><path stroke="#724314" stroke-linejoin="round" stroke-width="2" d="M88.5 15V30"/><path stroke="#724314" stroke-linejoin="round" stroke-width="2" d="M151 15V30"/><path stroke="#724314" stroke-linejoin="round" stroke-width="2" d="M213.5 15V30"/><path stroke="#724314" stroke-linejoin="round" stroke-width="2" d="M38.5 15V30"/><path stroke="#724314" stroke-linejoin="round" stroke-width="2" d="M101 15V30"/><path stroke="#724314" stroke-linejoin="round" stroke-width="2" d="M163.5 15V30"/><path stroke="#724314" stroke-linejoin="round" stroke-width="2" d="M226 15V30"/><path stroke="#724314" stroke-linejoin="round" stroke-width="2" d="M51 15V30"/><path stroke="#724314" stroke-linejoin="round" stroke-width="2" d="M113.5 15V30"/><path stroke="#724314" stroke-linejoin="round" stroke-width="2" d="M176 15V30"/><path stroke="#724314" stroke-linejoin="round" stroke-width="2" d="M238.5 15V30"/><path stroke="#724314" stroke-linejoin="round" stroke-width="2" d="M264 15V30"/><path stroke="#724314" stroke-linejoin="round" stroke-width="2" d="M277 15V30"/><path stroke="#724314" stroke-linejoin="round" stroke-width="2" d="M290 15V30"/><path stroke="#724314" stroke-linejoin="round" stroke-width="2" d="M303 15V30"/><path stroke="#724314" stroke-linejoin="round" stroke-width="2" d="M316 0V30"/><path stroke="#724314" stroke-linejoin="round" stroke-width="2" d="M378.5 0V30"/><path stroke="#724314" stroke-linejoin="round" stroke-width="2" d="M441 0V30"/><path stroke="#724314" stroke-linejoin="round" stroke-width="2" d="M503.5 0V30"/><path stroke="#724314" stroke-linejoin="round" stroke-width="2" d="M566 0V30"/><path stroke="#724314" stroke-linejoin="round" stroke-width="2" d="M328.5 15V30"/><path stroke="#724314" stroke-linejoin="round" stroke-width="2" d="M391 15V30"/><path stroke="#724314" stroke-linejoin="round" stroke-width="2" d="M453.5 15V30"/><path stroke="#724314" stroke-linejoin="round" stroke-width="2" d="M516 15V30"/><path stroke="#724314" stroke-linejoin="round" stroke-width="2" d="M341 15V30"/><path stroke="#724314" stroke-linejoin="round" stroke-width="2" d="M403.5 15V30"/><path stroke="#724314" stroke-linejoin="round" stroke-width="2" d="M466 15V30"/><path stroke="#724314" stroke-linejoin="round" stroke-width="2" d="M528.5 15V30"/><path stroke="#724314" stroke-linejoin="round" stroke-width="2" d="M353.5 15V30"/><path stroke="#724314" stroke-linejoin="round" stroke-width="2" d="M416 15V30"/><path stroke="#724314" stroke-linejoin="round" stroke-width="2" d="M478.5 15V30"/><path stroke="#724314" stroke-linejoin="round" stroke-width="2" d="M541 15V30"/><path stroke="#724314" stroke-linejoin="round" stroke-width="2" d="M366 15V30"/><path stroke="#724314" stroke-linejoin="round" stroke-width="2" d="M428.5 15V30"/><path stroke="#724314" stroke-linejoin="round" stroke-width="2" d="M491 15V30"/><path stroke="#724314" stroke-linejoin="round" stroke-width="2" d="M553.5 15V30"/><path stroke="#724314" stroke-linejoin="round" stroke-width="2" d="M579 15V30"/><path stroke="#724314" stroke-linejoin="round" stroke-width="2" d="M592 15V30"/><path stroke="#724314" stroke-linejoin="round" stroke-width="2" d="M605 15V30"/><path stroke="#724314" stroke-linejoin="round" stroke-width="2" d="M618 15V30"/><path stroke="#724314" stroke-linejoin="round" stroke-width="2" d="M631 0V30"/><path stroke="#724314" stroke-linejoin="round" stroke-width="2" d="M693.5 0V30"/><path stroke="#724314" stroke-linejoin="round" stroke-width="2" d="M756 0V30"/><path stroke="#724314" stroke-linejoin="round" stroke-width="2" d="M818.5 0V30"/><path stroke="#724314" stroke-linejoin="round" stroke-width="2" d="M881 0V30"/><path stroke="#724314" stroke-linejoin="round" stroke-width="2" d="M643.5 15V30"/><path stroke="#724314" stroke-linejoin="round" stroke-width="2" d="M706 15V30"/><path stroke="#724314" stroke-linejoin="round" stroke-width="2" d="M768.5 15V30"/><path stroke="#724314" stroke-linejoin="round" stroke-width="2" d="M831 15V30"/><path stroke="#724314" stroke-linejoin="round" stroke-width="2" d="M656 15V30"/><path stroke="#724314" stroke-linejoin="round" stroke-width="2" d="M718.5 15V30"/><path stroke="#724314" stroke-linejoin="round" stroke-width="2" d="M781 15V30"/><path stroke="#724314" stroke-linejoin="round" stroke-width="2" d="M843.5 15V30"/><path stroke="#724314" stroke-linejoin="round" stroke-width="2" d="M668.5 15V30"/><path stroke="#724314" stroke-linejoin="round" stroke-width="2" d="M731 15V30"/><path stroke="#724314" stroke-linejoin="round" stroke-width="2" d="M793.5 15V30"/><path stroke="#724314" stroke-linejoin="round" stroke-width="2" d="M856 15V30"/><path stroke="#724314" stroke-linejoin="round" stroke-width="2" d="M681 15V30"/><path stroke="#724314" stroke-linejoin="round" stroke-width="2" d="M743.5 15V30"/><path stroke="#724314" stroke-linejoin="round" stroke-width="2" d="M806 15V30"/><path stroke="#724314" stroke-linejoin="round" stroke-width="2" d="M868.5 15V30"/><path stroke="#724314" stroke-linejoin="round" stroke-width="2" d="M894 15V30"/><path stroke="#724314" stroke-linejoin="round" stroke-width="2" d="M907 15V30"/><path stroke="#724314" stroke-linejoin="round" stroke-width="2" d="M920 15V30"/><path stroke="#724314" stroke-linejoin="round" stroke-width="2" d="M933 15V30"/><path stroke="#724314" stroke-linejoin="round" stroke-width="2" d="M946 0V30"/><path stroke="#724314" stroke-linejoin="round" stroke-width="2" d="M1008.5 0V30"/><path stroke="#724314" stroke-linejoin="round" stroke-width="2" d="M1071 0V30"/><path stroke="#724314" stroke-linejoin="round" stroke-width="2" d="M1133.5 0V30"/><path stroke="#724314" stroke-linejoin="round" stroke-width="2" d="M1196 0V30"/><path stroke="#724314" stroke-linejoin="round" stroke-width="2" d="M958.5 15V30"/><path stroke="#724314" stroke-linejoin="round" stroke-width="2" d="M1021 15V30"/><path stroke="#724314" stroke-linejoin="round" stroke-width="2" d="M1083.5 15V30"/><path stroke="#724314" stroke-linejoin="round" stroke-width="2" d="M1146 15V30"/><path stroke="#724314" stroke-linejoin="round" stroke-width="2" d="M971 15V30"/><path stroke="#724314" stroke-linejoin="round" stroke-width="2" d="M1033.5 15V30"/><path stroke="#724314" stroke-linejoin="round" stroke-width="2" d="M1096 15V30"/><path stroke="#724314" stroke-linejoin="round" stroke-width="2" d="M1158.5 15V30"/><path stroke="#724314" stroke-linejoin="round" stroke-width="2" d="M983.5 15V30"/><path stroke="#724314" stroke-linejoin="round" stroke-width="2" d="M1046 15V30"/><path stroke="#724314" stroke-linejoin="round" stroke-width="2" d="M1108.5 15V30"/><path stroke="#724314" stroke-linejoin="round" stroke-width="2" d="M1171 15V30"/><path stroke="#724314" stroke-linejoin="round" stroke-width="2" d="M996 15V30"/><path stroke="#724314" stroke-linejoin="round" stroke-width="2" d="M1058.5 15V30"/><path stroke="#724314" stroke-linejoin="round" stroke-width="2" d="M1121 15V30"/><path stroke="#724314" stroke-linejoin="round" stroke-width="2" d="M1183.5 15V30"/><path stroke="#724314" stroke-linejoin="round" stroke-width="2" d="M1209 15V30"/><path stroke="#724314" stroke-linejoin="round" stroke-width="2" d="M1222 15V30"/><path stroke="#724314" stroke-linejoin="round" stroke-width="2" d="M1235 15V30"/><path stroke="#724314" stroke-linejoin="round" stroke-width="2" d="M1248 15V30"/><path stroke="#724314" stroke-linejoin="round" stroke-width="2" d="M1261 0V30"/><path stroke="#724314" stroke-linejoin="round" stroke-width="2" d="M1323.5 0V30"/><path stroke="#724314" stroke-linejoin="round" stroke-width="2" d="M1386 0V30"/><path stroke="#724314" stroke-linejoin="round" stroke-width="2" d="M1448.5 0V30"/><path stroke="#724314" stroke-linejoin="round" stroke-width="2" d="M1511 0V30"/><path stroke="#724314" stroke-linejoin="round" stroke-width="2" d="M1273.5 15V30"/><path stroke="#724314" stroke-linejoin="round" stroke-width="2" d="M1336 15V30"/><path stroke="#724314" stroke-linejoin="round" stroke-width="2" d="M1398.5 15V30"/><path stroke="#724314" stroke-linejoin="round" stroke-width="2" d="M1461 15V30"/><path stroke="#724314" stroke-linejoin="round" stroke-width="2" d="M1286 15V30"/><path stroke="#724314" stroke-linejoin="round" stroke-width="2" d="M1348.5 15V30"/><path stroke="#724314" stroke-linejoin="round" stroke-width="2" d="M1411 15V30"/><path stroke="#724314" stroke-linejoin="round" stroke-width="2" d="M1473.5 15V30"/><path stroke="#724314" stroke-linejoin="round" stroke-width="2" d="M1298.5 15V30"/><path stroke="#724314" stroke-linejoin="round" stroke-width="2" d="M1361 15V30"/><path stroke="#724314" stroke-linejoin="round" stroke-width="2" d="M1423.5 15V30"/><path stroke="#724314" stroke-linejoin="round" stroke-width="2" d="M1486 15V30"/><path stroke="#724314" stroke-linejoin="round" stroke-width="2" d="M1311 15V30"/><path stroke="#724314" stroke-linejoin="round" stroke-width="2" d="M1373.5 15V30"/><path stroke="#724314" stroke-linejoin="round" stroke-width="2" d="M1436 15V30"/><path stroke="#724314" stroke-linejoin="round" stroke-width="2" d="M1498.5 15V30"/><path stroke="#724314" stroke-linejoin="round" stroke-width="2" d="M1524 15V30"/><path stroke="#724314" stroke-linejoin="round" stroke-width="2" d="M1537 15V30"/><path stroke="#724314" stroke-linejoin="round" stroke-width="2" d="M1550 15V30"/><path stroke="#724314" stroke-linejoin="round" stroke-width="2" d="M1563 15V30"/><path stroke="#724314" stroke-linejoin="round" stroke-width="2" d="M1576 0V30"/><path stroke="#724314" stroke-linejoin="round" stroke-width="2" d="M1638.5 0V30"/><path stroke="#724314" stroke-linejoin="round" stroke-width="2" d="M1701 0V30"/><path stroke="#724314" stroke-linejoin="round" stroke-width="2" d="M1763.5 0V30"/><path stroke="#724314" stroke-linejoin="round" stroke-width="2" d="M1826 0V30"/><path stroke="#724314" stroke-linejoin="round" stroke-width="2" d="M1588.5 15V30"/><path stroke="#724314" stroke-linejoin="round" stroke-width="2" d="M1651 15V30"/><path stroke="#724314" stroke-linejoin="round" stroke-width="2" d="M1713.5 15V30"/><path stroke="#724314" stroke-linejoin="round" stroke-width="2" d="M1776 15V30"/><path stroke="#724314" stroke-linejoin="round" stroke-width="2" d="M1601 15V30"/><path stroke="#724314" stroke-linejoin="round" stroke-width="2" d="M1663.5 15V30"/><path stroke="#724314" stroke-linejoin="round" stroke-width="2" d="M1726 15V30"/><path stroke="#724314" stroke-linejoin="round" stroke-width="2" d="M1788.5 15V30"/><path stroke="#724314" stroke-linejoin="round" stroke-width="2" d="M1613.5 15V30"/><path stroke="#724314" stroke-linejoin="round" stroke-width="2" d="M1676 15V30"/><path stroke="#724314" stroke-linejoin="round" stroke-width="2" d="M1738.5 15V30"/><path stroke="#724314" stroke-linejoin="round" stroke-width="2" d="M1801 15V30"/><path stroke="#724314" stroke-linejoin="round" stroke-width="2" d="M1626 15V30"/><path stroke="#724314" stroke-linejoin="round" stroke-width="2" d="M1688.5 15V30"/><path stroke="#724314" stroke-linejoin="round" stroke-width="2" d="M1751 15V30"/><path stroke="#724314" stroke-linejoin="round" stroke-width="2" d="M1813.5 15V30"/></svg>